<?xml version="1.0" encoding="utf-8"?>
<!-- Svg Vector Icons : http://www.onlinewebfonts.com/icon -->
<!DOCTYPE svg PUBLIC "-//W3C//DTD SVG 1.1//EN" "http://www.w3.org/Graphics/SVG/1.1/DTD/svg11.dtd">
<svg version="1.1" xmlns="http://www.w3.org/2000/svg" xmlns:xlink="http://www.w3.org/1999/xlink" x="0px" y="0px" viewBox="0 0 256 256" enable-background="new 0 0 256 256" xml:space="preserve">
<metadata> Svg Vector Icons : http://www.onlinewebfonts.com/icon </metadata>
<g><g><path fill="#000000" d="M150.1,54.3H61.6c-4.1,0-7.4,3.3-7.4,7.4v132.8c0,4,3.3,7.4,7.4,7.4h14.8c4.1,0,7.4-3.3,7.4-7.4V83.8h59c16.3,0,29.5,13.2,29.5,29.5v29.5c0,16.3-13.2,29.5-29.5,29.5H128V98.5H98.5v95.9c0,4,3.3,7.4,7.4,7.4h44.3c28.5,0,51.6-23.1,51.6-51.6v-44.2C201.8,77.4,178.6,54.3,150.1,54.3z M216.5,10h-177C23.2,10,10,23.2,10,39.5v177c0,16.3,13.2,29.5,29.5,29.5h177c16.3,0,29.5-13.2,29.5-29.5v-177C246,23.2,232.8,10,216.5,10z M216.5,201.8c0,8.2-6.6,14.8-14.8,14.8H54.3c-8.1,0-14.8-6.6-14.8-14.8V54.3c0-8.1,6.6-14.8,14.8-14.8h147.5c8.2,0,14.8,6.6,14.8,14.8L216.5,201.8L216.5,201.8z"/></g></g>
</svg>